<svg width="143" height="143" viewBox="0 0 143 143" fill="none" xmlns="http://www.w3.org/2000/svg">
<path d="M71.0896 0.00104609C32.8696 0.221046 1.23957 31.081 0.119568 69.281C-0.300432 83.751 3.59957 97.291 10.6396 108.711C10.6796 108.761 10.7196 108.821 10.7696 108.871C16.8196 118.661 25.1596 126.861 35.0296 132.761C35.1396 132.821 35.2596 132.881 35.3696 132.951C47.4296 140.061 61.7396 143.751 76.9496 142.611C112.32 139.961 140.66 111.181 142.78 75.771C145.27 34.291 112.1 -0.218954 71.0896 0.00104609ZM4.06957 88.641C5.07957 83.981 6.22957 79.621 7.48957 75.501L16.2596 82.941C13.1996 89.091 11.2196 96.391 10.3696 104.711C7.62957 99.701 5.48957 94.301 4.04957 88.641H4.05957H4.06957ZM126.82 84.431L120.63 87.291L118.1 109.361C107.31 115.041 98.5896 116.641 92.1796 114.071C86.9596 111.991 83.0196 107.021 80.4796 99.311L78.0796 100.091C80.8596 108.541 85.2896 114.021 91.2396 116.401C92.1396 116.751 93.0796 117.031 94.0696 117.251C87.9896 122.611 80.4896 136.981 78.2796 141.381C76.7996 141.531 75.3096 141.611 73.8096 141.671V87.361C74.1496 87.371 74.4796 87.411 74.8296 87.411L74.8896 84.881C70.0996 84.771 66.9996 83.711 65.4696 81.731L59.6496 73.091L59.5096 72.931C59.5096 72.931 55.9896 68.761 56.3296 64.461C56.4896 62.401 57.2796 60.611 59.3596 59.041C61.3196 57.561 63.1696 57.061 65.0296 57.511C69.3396 58.561 72.1796 64.391 72.1996 64.461L74.4896 63.371C74.4496 63.291 74.2196 62.811 73.7996 62.111V53.291H116.74V62.991L126.81 84.401L126.82 84.431ZM38.8396 124.211C43.6296 130.991 51.4496 136.401 62.1796 140.371C53.2896 139.181 44.9296 136.311 37.4196 132.081L38.8296 124.211H38.8396ZM85.6996 42.301C85.1796 42.301 84.7796 41.931 84.2596 41.551C83.5296 41.031 82.6796 40.431 82.1296 40.041C80.6896 39.021 79.2796 38.361 77.5496 37.911C66.2796 34.991 55.4896 42.011 48.4696 50.281C43.5996 56.021 39.7496 62.841 36.8896 69.781C36.6496 70.361 36.2196 71.551 35.4796 71.651C34.7396 71.751 34.0796 70.751 33.5696 70.341C31.0796 68.371 28.9996 65.941 26.6296 63.841C26.8096 64.001 26.9896 64.161 27.1696 64.321C27.3496 63.421 27.6796 61.981 28.2596 60.261C33.4196 44.921 48.1996 35.001 62.7696 29.761C74.9596 25.371 88.8296 24.621 99.2196 33.531C99.7196 33.961 101.76 36.021 103.34 38.181C104.82 40.191 105.84 42.311 106.06 42.391L85.6896 42.301H85.6996ZM38.0396 74.711C39.5596 69.711 44.4396 53.931 57.2896 45.531C57.8896 45.141 58.4296 44.711 59.1696 44.221C62.7696 41.881 68.2496 39.271 74.2096 39.961C76.5296 40.231 78.7296 40.881 81.1996 42.331L73.1596 42.201C70.3696 42.201 67.4796 44.711 67.4796 47.501C67.4796 49.851 69.1696 52.731 71.3396 53.301L71.3996 59.201C69.9596 57.631 68.0696 56.131 65.7696 55.561C63.1696 54.921 60.1596 54.951 57.5796 56.881C54.8896 58.901 53.8096 62.001 53.5796 64.821C53.5396 65.331 53.5496 65.831 53.5796 66.311C49.7696 72.931 47.3996 78.371 46.3696 82.901C42.8696 79.461 39.3596 76.011 35.8596 72.571C36.5896 73.281 37.3096 74.001 38.0396 74.711ZM48.6496 83.131C49.3996 79.261 51.3496 74.431 54.4696 68.701C55.5696 71.431 57.3196 73.421 57.7396 73.881L60.2396 77.581C60.1996 77.521 60.1596 77.461 60.1196 77.401C58.9996 81.901 57.8796 86.391 56.7496 90.891L47.8496 82.981C48.0696 83.241 48.2796 83.511 48.4996 83.771C48.5496 83.551 48.5996 83.331 48.6396 83.121L48.6496 83.131ZM62.0096 80.201L63.5496 82.491C65.1796 84.591 67.7196 85.851 71.4096 86.391V130.571L66.1696 106.561C65.7996 103.461 63.9296 99.441 60.4696 94.261L60.2596 94.021L58.8796 92.791L62.0196 80.221H62.0096V80.201ZM72.6696 50.051C70.9496 50.051 69.6196 48.311 70.3496 46.501C70.7296 45.561 71.7196 45.001 72.7396 45.001H118.08C119.1 45.001 120.08 45.561 120.47 46.501C121.2 48.311 119.87 50.051 118.15 50.051H72.6796H72.6696ZM108.87 42.471C106.38 37.571 93.3096 15.841 62.1196 27.391C31.7796 38.631 25.9196 57.581 24.8896 62.581L16.0196 54.701C31.2796 26.151 54.1096 17.451 72.7896 15.781C106.87 12.471 114.96 35.921 116.55 42.461H108.86L108.87 42.471ZM33.3696 73.501C41.7296 80.931 50.0896 88.361 58.4496 95.781C61.5796 100.491 63.3396 104.221 63.6796 106.961L68.1896 127.591C51.7996 120.121 45.6596 109.931 49.5096 96.461L49.7196 95.691L12.1296 62.991L12.0196 63.121C12.9196 61.001 13.8496 58.961 14.8196 57.021C14.8196 57.021 21.6296 63.081 29.8796 70.401M11.0496 65.411L46.8596 96.561C42.9296 111.531 50.1596 122.681 68.8496 130.671L70.9996 140.521C55.2996 136.281 44.6896 129.591 39.5096 120.611C34.7596 112.391 35.6696 104.001 37.2596 98.401L37.4896 97.621L8.33957 72.901C9.19957 70.301 10.0996 67.781 11.0596 65.401L11.0496 65.411ZM12.6196 108.471C13.1896 99.251 15.0796 91.251 18.2696 84.631L29.5396 94.181C29.2796 93.961 29.0196 93.741 28.7496 93.511C27.3196 97.031 25.8796 101.311 24.7896 106.251C23.5396 111.941 23.0796 117.041 22.9796 121.241C21.2196 119.521 19.3296 117.501 17.4296 115.161C15.5296 112.811 13.9396 110.541 12.6196 108.461V108.471ZM25.5196 123.621C25.2496 112.301 27.9596 102.931 30.7396 95.211L34.6196 98.491C32.4496 106.741 33.3196 114.661 37.1096 121.481C37.0296 121.331 36.9496 121.191 36.8696 121.041C36.2796 124.271 35.6896 127.501 35.0996 130.721C33.5296 129.751 31.8696 128.641 30.1496 127.361C28.4396 126.091 26.8996 124.821 25.5296 123.611L25.5196 123.621ZM81.4196 140.271C86.3096 130.771 94.1596 117.801 98.0496 117.001V116.971C98.3296 116.971 98.5896 117.011 98.8696 117.011C104.86 117.011 111.93 114.831 119.99 110.501L120.57 110.181L123.1 88.171L130.31 84.841L119.4 61.611C119.4 58.511 119.41 55.401 119.42 52.301C118.99 52.361 118.56 52.411 118.13 52.471C120.92 52.471 123.18 50.211 123.18 47.411C123.18 44.971 121.44 42.921 119.14 42.451C117.75 36.521 109.38 9.52105 72.5496 13.121C47.8796 15.331 16.1696 29.331 2.85957 82.691C2.26957 79.041 1.93957 75.281 1.93957 71.461C1.93957 31.841 35.1496 -0.128954 75.1496 1.99105C110.26 3.85105 138.72 32.201 140.75 67.341C142.87 104.101 116.3 135.201 81.4196 140.271Z" fill="#820AD1"/>
</svg>
